<?xml version="1.0" encoding="utf-8"?>
<!-- Generator: Adobe Illustrator 22.0.0, SVG Export Plug-In . SVG Version: 6.00 Build 0)  -->
<svg version="1.1" xmlns="http://www.w3.org/2000/svg" xmlns:xlink="http://www.w3.org/1999/xlink" x="0px" y="0px"
	 viewBox="0 0 283.5 283.5" style="enable-background:new 0 0 283.5 283.5;" xml:space="preserve">
<style type="text/css">
	.st0{fill:#51AE31;}
</style>
<g id="Hilfslinien_1_">
</g>
<g id="Piktogramme">
	<path class="st0" d="M141.7,22.2c31.9,0,62,12.4,84.5,35c22.6,22.6,35,52.6,35,84.5c0,31.9-12.4,62-35,84.5
		c-22.6,22.6-52.6,35-84.5,35c-31.9,0-62-12.4-84.5-35c-22.6-22.6-35-52.6-35-84.5s12.4-62,35-84.5C79.8,34.6,109.8,22.2,141.7,22.2
		 M141.7,14.2c-70.4,0-127.6,57.1-127.6,127.6c0,70.4,57.1,127.6,127.6,127.6s127.6-57.1,127.6-127.6
		C269.3,71.3,212.2,14.2,141.7,14.2L141.7,14.2z M220.3,126.5h-10.7c-2,0-3.8,0.9-5,2.3L193,95.5c-1.4-4.3-5.7-7.1-10-7.1h-82.8
		c-5,0-8.6,2.9-10,7.1l-11.6,33.2c-1.2-1.4-2.9-2.2-4.8-2.2H63.1c-3.5,0-6.4,2.9-6.4,6.4v4.3c0,3.6,2.9,6.4,6.4,6.4h10.7
		c0.5,0,1-0.1,1.5-0.2v51.9c0,4.3,2.9,7.1,7.1,7.1h7.1c4.3,0,7.1-2.9,7.1-7.1v-7.1h89.9v7.1c0,4.3,2.8,7.1,7.1,7.1h7.1
		c4.3,0,7.1-2.9,7.1-7.1v-52c0.5,0.1,1.1,0.2,1.6,0.2h10.7c3.6,0,6.4-2.9,6.4-6.4v-4.3C226.7,129.3,223.9,126.5,220.3,126.5z
		 M97.6,96.3h88l11.6,34.9H86L97.6,96.3z M111.7,157.6c0,1.4-1.2,2.6-2.6,2.6H88.7c-1.4,0-2.6-1.2-2.6-2.6v-9c0-1.4,1.2-2.6,2.6-2.6
		h20.4c1.4,0,2.6,1.2,2.6,2.6V157.6z M197.4,157.6c0,1.4-1.2,2.6-2.5,2.6h-20.4c-1.4,0-2.6-1.2-2.6-2.6v-9c0-1.4,1.2-2.6,2.6-2.6
		h20.4c1.4,0,2.5,1.2,2.5,2.6V157.6z M136,71.6c0.2,0.9,0.6,2.3,0.7,2.6h-2.5c0.3-0.9,0.4-1.5,0.7-2.4c0.2-0.9,0.5-2.2,0.6-2.5
		L136,71.6z M166.6,62.1h-49.9c-3.5,0-6.2,2.8-6.2,6.2v9.4c0,3.5,2.8,6.2,6.2,6.2h49.9c3.5,0,6.2-2.8,6.2-6.2v-9.4
		C172.9,64.9,170.1,62.1,166.6,62.1z M127,68.7h-3.1v10.8h-2.7V68.7H118v-2.2h9.4L127,68.7z M138.2,79.5l-0.9-3.1h-3.8l-0.9,3.1
		h-2.7l4.3-13h2.8l4.1,13H138.2z M152.3,79.5l-2.3-4.6l-2.3,4.6h-3.3l4.1-7l-3.5-6h3.2l1.8,3.5l1.8-3.5h3.1l-3.4,5.9l4,7.1H152.3z
		 M163,79.5h-2.7v-13h2.7V79.5z"/>
</g>
</svg>
