<?xml version="1.0" encoding="utf-8"?>
<!-- Generator: Adobe Illustrator 22.0.0, SVG Export Plug-In . SVG Version: 6.00 Build 0)  -->
<svg version="1.1" xmlns="http://www.w3.org/2000/svg" xmlns:xlink="http://www.w3.org/1999/xlink" x="0px" y="0px"
	 viewBox="0 0 283.5 283.5" style="enable-background:new 0 0 283.5 283.5;" xml:space="preserve">
<style type="text/css">
	.st0{fill:#51AE31;}
</style>
<g id="Hilfslinien_1_">
</g>
<g id="Piktogramme">
	<path id="HessGISS" class="st0" d="M141.7,22.2c31.9,0,62,12.4,84.5,35s35,52.6,35,84.5s-12.4,62-35,84.5s-52.6,35-84.5,35
		s-62-12.4-84.5-35c-22.6-22.6-35-52.6-35-84.5s12.4-62,35-84.5C79.8,34.6,109.8,22.2,141.7,22.2 M141.7,14.2
		c-70.4,0-127.6,57.1-127.6,127.6s57.1,127.6,127.6,127.6s127.6-57.1,127.6-127.6S212.2,14.2,141.7,14.2L141.7,14.2z M233.8,141.7
		c0-1.8-0.7-3.5-2-4.8l-85.3-85.3c-1.3-1.3-3-2-4.8-2c-1.8,0-3.5,0.7-4.8,2l-85.3,85.3c-1.3,1.3-2,3-2,4.8c0,1.8,0.7,3.5,2,4.8
		l85.3,85.3c1.3,1.3,3,2,4.8,2c1.8,0,3.5-0.7,4.8-2l85.3-85.3C233.1,145.3,233.8,143.6,233.8,141.7z M141.7,225.4l-83.6-83.6
		l83.6-83.6l83.6,83.6L141.7,225.4z M95.5,124.1H91V138h-6v-13.9h-4.5v32.3h4.5v-14.7h6v14.7h4.5V124.1z M111.6,146.5v-7.2
		c0-4.2-2.8-5.6-6.1-5.6c-3.9,0-6.1,2.2-6.1,6v11.4c0,4.2,2.8,5.6,6,5.6c4.7,0,6.3-2.2,6.3-4.5V149h-3.9v2.1c0,1.8-0.4,2.9-2,2.9
		c-1.3,0-2.1-0.6-2.1-2.7v-4.8H111.6z M103.6,138.8c0-1.6,0.5-2.5,2.1-2.5c1.4,0,2,0.8,2,2.8v4.4h-4.1V138.8z M122.1,143.6
		c-2.8-2.5-3-2.6-3-4.9c0-1.6,0.3-2.1,1.4-2.1s1.5,0.7,1.5,2.4v2.1h3.8v-3.4c0-2.7-1.7-4.1-4.8-4.1c-3.8,0-5.8,1.3-5.8,5.6
		c0,3.1,0,3.4,3.4,6.3l0.9,0.8c2.4,2.1,2.5,2.4,2.5,4.8c0,1.8-0.2,2.5-1.6,2.5c-1,0-1.6-0.4-1.6-1.7v-3.1H115v3.2
		c0,3.3,1.8,4.6,5,4.6c4.5,0,6-1.7,6-6C126,147.4,125.3,146.5,122.1,143.6z M136.2,143.6c-2.8-2.5-3-2.6-3-4.9
		c0-1.6,0.3-2.1,1.4-2.1c1.1,0,1.5,0.7,1.5,2.4v2.1h3.8v-3.4c0-2.7-1.7-4.1-4.8-4.1c-3.8,0-5.8,1.3-5.8,5.6c0,3.1,0,3.4,3.4,6.3
		l0.9,0.8c2.4,2.1,2.5,2.4,2.5,4.8c0,1.8-0.2,2.5-1.6,2.5c-1,0-1.6-0.4-1.6-1.7v-3.1h-3.9v3.2c0,3.3,1.8,4.6,5,4.6c4.5,0,6-1.7,6-6
		C140.1,147.4,139.5,146.5,136.2,143.6z M158.7,139.7h-7.4v3.8h3v9.5c-0.6,0.1-1.6,0.3-2.9,0.3c-1.8,0-3.1-1.7-3.1-4.3v-16.3
		c0-3.4,1-5.3,3.1-5.3c1.7,0,2.9,1.4,2.9,3.7v1.7h4.5v-3c0-4.1-2.5-5.9-7.3-5.9c-5.8,0-7.6,2.5-7.6,8.5v16.3c0,5,1.8,8,7.5,8
		c2.5,0,5.6-0.4,7.4-0.8V139.7z M167.2,124.1h-4.5v32.3h4.5V124.1z M179.8,138.7c-4.1-4.3-4.6-5.6-4.6-7.8c0-2.5,0.9-3.5,2.7-3.5
		c1.7,0,2.5,1.1,2.5,2.9v2.6h4.2v-3c0-2.3-0.5-3.4-1.3-4.1c-1.1-1-2.8-1.8-5.2-1.8c-4.9,0-7.3,2.3-7.3,7.6c0,4.4,2.4,7,5.2,9.8
		c4.7,4.6,4.8,5.5,4.8,8.2c0,2.1-0.6,3.7-3,3.7c-1.8,0-2.6-1.3-2.6-3.5v-2.6h-4.5v3.8c0,4,2.8,5.8,6.9,5.8c5.3,0,7.3-2.9,7.3-8
		C185,144.8,184.2,143.3,179.8,138.7z M197.3,138.7c-4.1-4.3-4.6-5.6-4.6-7.8c0-2.5,0.9-3.5,2.7-3.5c1.7,0,2.5,1.1,2.5,2.9v2.6h4.2
		v-3c0-2.3-0.5-3.4-1.3-4.1c-1.1-1-2.8-1.8-5.2-1.8c-4.9,0-7.3,2.3-7.3,7.6c0,4.4,2.4,7,5.2,9.8c4.7,4.6,4.8,5.5,4.8,8.2
		c0,2.1-0.6,3.7-3,3.7c-1.8,0-2.6-1.3-2.6-3.5v-2.6h-4.5v3.8c0,4,2.8,5.8,6.9,5.8c5.3,0,7.3-2.9,7.3-8
		C202.5,144.8,201.7,143.3,197.3,138.7z"/>
</g>
</svg>
