<?xml version="1.0" encoding="utf-8"?>
<!-- Generator: Adobe Illustrator 22.0.0, SVG Export Plug-In . SVG Version: 6.00 Build 0)  -->
<svg version="1.1" xmlns="http://www.w3.org/2000/svg" xmlns:xlink="http://www.w3.org/1999/xlink" x="0px" y="0px"
	 viewBox="0 0 283.5 283.5" style="enable-background:new 0 0 283.5 283.5;" xml:space="preserve">
<style type="text/css">
	.st0{fill:#D40F14;}
</style>
<g id="Hilfslinien_1_">
</g>
<g id="Piktogramme">
	<path class="st0" d="M141.8,22.2c31.9,0,62,12.4,84.5,35c22.6,22.6,35,52.6,35,84.5s-12.4,62-35,84.5s-52.6,35-84.5,35
		s-62-12.4-84.5-35c-22.6-22.6-35-52.6-35-84.5s12.4-62,35-84.5C79.8,34.6,109.8,22.2,141.8,22.2 M141.8,14.2
		c-70.4,0-127.6,57.1-127.6,127.6s57.1,127.6,127.6,127.6s127.6-57.1,127.6-127.6S212.2,14.2,141.8,14.2L141.8,14.2z M141.8,75.2
		c-36.8,0-66.6,29.8-66.6,66.6c0,36.8,29.8,66.6,66.6,66.6s66.6-29.8,66.6-66.6C208.4,105,178.6,75.2,141.8,75.2z M115.3,177.2
		v-70.9l70.9,35.4L115.3,177.2z"/>
</g>
</svg>
