<?xml version="1.0" encoding="utf-8"?>
<!-- Generator: Adobe Illustrator 22.0.0, SVG Export Plug-In . SVG Version: 6.00 Build 0)  -->
<svg version="1.1" xmlns="http://www.w3.org/2000/svg" xmlns:xlink="http://www.w3.org/1999/xlink" x="0px" y="0px"
	 viewBox="0 0 283.5 283.5" style="enable-background:new 0 0 283.5 283.5;" xml:space="preserve">
<style type="text/css">
	.st0{fill:#51AE31;}
</style>
<g id="Hilfslinien_1_">
</g>
<g id="Piktogramme">
	<path id="Eintrag_im_Verbandbuch" class="st0" d="M141.7,22.2c31.9,0,62,12.4,84.5,35c22.6,22.6,35,52.6,35,84.5
		c0,31.9-12.4,62-35,84.5c-22.6,22.6-52.6,35-84.5,35s-62-12.4-84.5-35c-22.6-22.6-35-52.6-35-84.5c0-31.9,12.4-62,35-84.5
		C79.8,34.6,109.8,22.2,141.7,22.2 M141.7,14.2c-70.4,0-127.6,57.1-127.6,127.6c0,70.4,57.1,127.6,127.6,127.6
		s127.6-57.1,127.6-127.6C269.3,71.3,212.2,14.2,141.7,14.2L141.7,14.2z M172.9,205.8H94.7V77.7h94v52.9h8V69.7h-110v144.1h86.2
		V205.8z M152.9,110.6h-22.3v20h-20v22.3h20v20h22.3v-20h20v-22.3h-20V110.6z M225.8,147.2c-0.7-2.3-2.3-4.2-4.4-5.2l-11.4-5.3
		c-2.1-1-4.6-1-6.8,0c-2.1,0.9-3.8,2.6-4.8,4.7L181,178.7l0.1,34.9l26.8-22.4l17.4-37.3C226.3,151.8,226.5,149.4,225.8,147.2z
		 M188,193.9l0-9l10.6,4.9l-6.9,5.8L188,193.9z M218.9,151l-15.6,33.4l-14.2-6.6l15.6-33.4c0.3-0.6,0.7-1,1.2-1.3
		c0.2-0.1,0.7-0.2,1.1,0l11.4,5.3c0.4,0.2,0.6,0.6,0.6,0.8C219.3,149.8,219.2,150.4,218.9,151z"/>
</g>
</svg>
