<?xml version="1.0" encoding="utf-8"?>
<!-- Generator: Adobe Illustrator 22.0.0, SVG Export Plug-In . SVG Version: 6.00 Build 0)  -->
<svg version="1.1" xmlns="http://www.w3.org/2000/svg" xmlns:xlink="http://www.w3.org/1999/xlink" x="0px" y="0px"
	 viewBox="0 0 283.5 283.5" style="enable-background:new 0 0 283.5 283.5;" xml:space="preserve">
<style type="text/css">
	.st0{fill:#51AE31;}
</style>
<g id="Hilfslinien_1_">
</g>
<g id="Piktogramme">
	<path id="Erste-Hilfe-Kontingent" class="st0" d="M141.7,22.2c31.9,0,62,12.4,84.5,35c22.6,22.6,35,52.6,35,84.5s-12.4,62-35,84.5
		c-22.6,22.6-52.6,35-84.5,35s-62-12.4-84.5-35c-22.6-22.6-35-52.6-35-84.5s12.4-62,35-84.5C79.8,34.6,109.8,22.2,141.7,22.2
		 M141.7,14.2c-70.4,0-127.6,57.1-127.6,127.6s57.1,127.6,127.6,127.6s127.6-57.1,127.6-127.6S212.2,14.2,141.7,14.2L141.7,14.2z
		 M151.3,119.8h-19.2v17.3h-17.3v19.2h17.3v17.3h19.2v-17.3h17.3v-19.2h-17.3V119.8z M191.1,95.7h-18.3v-7.3c0-4.7-3.8-8.5-8.5-8.5
		h-45c-4.7,0-8.5,3.8-8.5,8.5v7.3H92.4c-9.5,0-17.2,7.8-17.2,17.2v67.7c0,9.5,7.8,17.2,17.2,17.2h100.1c8,0,15.8-7.8,15.8-17.2
		v-67.7C208.3,103.4,200.5,95.7,191.1,95.7z M118.8,88.3c0-0.3,0.2-0.5,0.5-0.5h45c0.3,0,0.5,0.2,0.5,0.5v7.3h-46V88.3z
		 M200.3,180.6c0,5.1-4.3,9.2-7.8,9.2H92.4c-5.1,0-9.2-4.1-9.2-9.2v-67.7c0-5.1,4.1-9.2,9.2-9.2h98.7c5.1,0,9.2,4.1,9.2,9.2V180.6z"
		/>
</g>
</svg>
