<?xml version="1.0" encoding="utf-8"?>
<!-- Generator: Adobe Illustrator 22.0.0, SVG Export Plug-In . SVG Version: 6.00 Build 0)  -->
<svg version="1.1" xmlns="http://www.w3.org/2000/svg" xmlns:xlink="http://www.w3.org/1999/xlink" x="0px" y="0px"
	 viewBox="0 0 283.5 283.5" style="enable-background:new 0 0 283.5 283.5;" xml:space="preserve">
<style type="text/css">
	.st0{fill:#51AE31;}
</style>
<g id="Hilfslinien_1_">
</g>
<g id="Piktogramme">
	<path id="Unfall_melden" class="st0" d="M141.7,22.2c31.9,0,62,12.4,84.5,35c22.6,22.6,35,52.6,35,84.5s-12.4,62-35,84.5
		s-52.6,35-84.5,35s-62-12.4-84.5-35c-22.6-22.6-35-52.6-35-84.5s12.4-62,35-84.5C79.8,34.6,109.8,22.2,141.7,22.2 M141.7,14.2
		c-70.4,0-127.6,57.1-127.6,127.6s57.1,127.6,127.6,127.6s127.6-57.1,127.6-127.6S212.2,14.2,141.7,14.2L141.7,14.2z M168.7,133.2
		c-4.7,0-8.5,3.8-8.5,8.5c0,4.7,3.8,8.5,8.5,8.5c4.7,0,8.5-3.8,8.5-8.5C177.2,137,173.4,133.2,168.7,133.2z M114.8,133.2
		c-4.7,0-8.5,3.8-8.5,8.5c0,4.7,3.8,8.5,8.5,8.5s8.5-3.8,8.5-8.5C123.3,137,119.5,133.2,114.8,133.2z M141.7,168
		c-8.6,0-16,5.3-19.2,12.8h9.2c2.3-2.9,5.9-4.8,10-4.8c4,0,7.6,1.9,10,4.8h9.2C157.7,173.3,150.3,168,141.7,168z M202.6,115.1
		c-3.3-7.4-7.8-14.1-13.4-19.8c-0.4-0.4-0.8-0.8-1.2-1.2c-9.5-9.2-21.8-15.7-35.4-17.9c0,0,0.1,0,0.1-0.1c2.1-1.4,4.4-2.3,8-3
		c-7.3-2.3-14.7,1.4-14.7,1.4c-1.1-1.5,6.3-10.6,6.7-10.8c0,0-10.4,2.6-16.3,11.7c-4.4-0.9-13.7-9-13.7-9s1.1,5.8,5,10.3
		c0,0,0,0,0,0c-2.5,0.5-4.9,1.2-7.3,2c-24.8,8.4-43.1,31.1-44.9,58.3c-0.1,1.5-0.2,3.1-0.2,4.6c0,36.6,29.8,66.4,66.4,66.4
		s66.4-29.8,66.4-66.4c0-5.6-0.7-11.1-2-16.4C205.2,121.8,204,118.4,202.6,115.1z M189,107.3c-15.7,0.2-32.6,2.4-48.2,5.2
		c-6.8,1.2-13.3,2.5-19.3,3.9c19.8-7.1,44.4-14.2,63.2-14.3C186.1,103.7,187.6,105.4,189,107.3z M161.3,86.6
		c5.2,1.9,10.2,4.5,14.8,7.9c-5.8,0.5-12.2,1.6-19.2,3.1l0,0c-1.5-0.1-30.1-1.8-54.1,3.6C115.6,97.3,141.6,89.8,161.3,86.6z
		 M88.7,117.2c0.1-0.1,0.1-0.2,0.2-0.3c0.6-1.2,1.2-2.4,1.8-3.5c10.3-4.7,24.3-6.7,36.8-7.6c-2,0.7-4.1,1.4-6.2,2.1
		c-15.3,5.3-28.2,10.9-34.3,13.6C87.4,120.1,88,118.6,88.7,117.2z M141.7,200.2c-32.2,0-58.4-26.2-58.4-58.4c0-2.4,0.2-4.8,0.4-7.2
		l4.1-1.3c0.4-0.1,29.2-8.9,61.8-14.2c10.1,6.3,22,9.9,34.8,9.9c4.8,0,9.5-0.5,13.9-1.5c1.1,4.5,1.8,9.3,1.8,14.2
		C200.2,174,174,200.2,141.7,200.2z"/>
</g>
</svg>
